<svg width="42" height="42" viewBox="0 0 42 42" fill="none" xmlns="http://www.w3.org/2000/svg">
<path d="M29.75 6.125H12.25C7 6.125 3.5 8.75 3.5 14.875V27.125C3.5 33.25 7 35.875 12.25 35.875H29.75C35 35.875 38.5 33.25 38.5 27.125V14.875C38.5 8.75 35 6.125 29.75 6.125ZM30.5725 16.7825L25.095 21.1575C23.94 22.085 22.47 22.54 21 22.54C19.53 22.54 18.0425 22.085 16.905 21.1575L11.4275 16.7825C10.8675 16.3275 10.78 15.4875 11.2175 14.9275C11.6725 14.3675 12.495 14.2625 13.055 14.7175L18.5325 19.0925C19.8625 20.16 22.12 20.16 23.45 19.0925L28.9275 14.7175C29.4875 14.2625 30.3275 14.35 30.765 14.9275C31.22 15.4875 31.1325 16.3275 30.5725 16.7825Z" fill="black" fill-opacity="0.3"/>
</svg>
