<svg width="44" height="44" viewBox="0 0 44 44" fill="none" xmlns="http://www.w3.org/2000/svg">
<path d="M38.9582 16.775C34.7232 10.12 28.5265 6.28833 21.9998 6.28833C18.7365 6.28833 15.5648 7.24166 12.6682 9.02C9.7715 10.8167 7.16817 13.4383 5.0415 16.775C3.20817 19.6533 3.20817 24.3283 5.0415 27.2067C9.2765 33.88 15.4732 37.6933 21.9998 37.6933C25.2632 37.6933 28.4348 36.74 31.3315 34.9617C34.2282 33.165 36.8315 30.5433 38.9582 27.2067C40.7915 24.3467 40.7915 19.6533 38.9582 16.775ZM21.9998 29.4067C17.8932 29.4067 14.5932 26.0883 14.5932 22C14.5932 17.9117 17.8932 14.5933 21.9998 14.5933C26.1065 14.5933 29.4065 17.9117 29.4065 22C29.4065 26.0883 26.1065 29.4067 21.9998 29.4067Z" fill="#040404" fill-opacity="0.3"/>
<path d="M21.9999 16.7567C19.1216 16.7567 16.7749 19.1033 16.7749 22C16.7749 24.8783 19.1216 27.225 21.9999 27.225C24.8782 27.225 27.2432 24.8783 27.2432 22C27.2432 19.1217 24.8782 16.7567 21.9999 16.7567Z" fill="#040404" fill-opacity="0.3"/>
</svg>
