<svg width="46" height="46" viewBox="0 0 46 46" fill="none" xmlns="http://www.w3.org/2000/svg">
<path d="M13.8766 3.83325H10.2349C6.03742 3.83325 3.83325 6.03742 3.83325 10.2158V13.8574C3.83325 18.0358 6.03742 20.2399 10.2158 20.2399H13.8574C18.0358 20.2399 20.2399 18.0358 20.2399 13.8574V10.2158C20.2591 6.03742 18.0549 3.83325 13.8766 3.83325Z" fill="#0235B2"/>
<path d="M35.7842 3.83325H32.1425C27.9642 3.83325 25.76 6.03742 25.76 10.2158V13.8574C25.76 18.0358 27.9642 20.2399 32.1425 20.2399H35.7842C39.9625 20.2399 42.1667 18.0358 42.1667 13.8574V10.2158C42.1667 6.03742 39.9625 3.83325 35.7842 3.83325Z" fill="#0235B2"/>
<path d="M35.7842 25.7407H32.1425C27.9642 25.7407 25.76 27.9449 25.76 32.1232V35.7649C25.76 39.9432 27.9642 42.1474 32.1425 42.1474H35.7842C39.9625 42.1474 42.1667 39.9432 42.1667 35.7649V32.1232C42.1667 27.9449 39.9625 25.7407 35.7842 25.7407Z" fill="#0235B2"/>
<path d="M13.8766 25.7407H10.2349C6.03742 25.7407 3.83325 27.9449 3.83325 32.1232V35.7649C3.83325 39.9624 6.03742 42.1666 10.2158 42.1666H13.8574C18.0358 42.1666 20.2399 39.9624 20.2399 35.7841V32.1424C20.2591 27.9449 18.0549 25.7407 13.8766 25.7407Z" fill="#0235B2"/>
</svg>
