<svg width="42" height="42" viewBox="0 0 42 42" fill="none" xmlns="http://www.w3.org/2000/svg">
<path d="M18.8297 3.5C17.9897 3.5 17.3247 4.165 17.3247 5.005V19.81H23.7472L20.9997 17.0625C20.4922 16.555 20.4922 15.715 20.9997 15.2075C21.5072 14.7 22.3472 14.7 22.8547 15.2075L27.8247 20.195C28.3322 20.7025 28.3322 21.5425 27.8247 22.05L22.8547 27.0375C22.5922 27.3 22.2597 27.4225 21.9272 27.4225C21.5947 27.4225 21.2622 27.3 20.9997 27.0375C20.4922 26.53 20.4922 25.69 20.9997 25.1825L23.7297 22.4525H17.3247V37.03C17.3247 37.8525 17.9897 38.535 18.8297 38.535C29.1372 38.535 36.3297 31.3425 36.3297 21.035C36.3297 10.7275 29.1197 3.5 18.8297 3.5Z" fill="black" fill-opacity="0.3"/>
<path d="M6.98242 19.8101C6.26492 19.8101 5.66992 20.4051 5.66992 21.1226C5.66992 21.8401 6.26492 22.4351 6.98242 22.4351H17.3074V19.8101H6.98242Z" fill="black" fill-opacity="0.3"/>
</svg>
