<svg width="64" height="64" viewBox="0 0 64 64" fill="none" xmlns="http://www.w3.org/2000/svg">
<path d="M51.5733 38.6399L48.9066 34.2132C48.3466 33.2266 47.8399 31.3599 47.8399 30.2666V23.5199C47.8399 17.2533 44.1599 11.8399 38.8533 9.30659C37.4666 6.85325 34.9066 5.33325 31.9733 5.33325C29.0666 5.33325 26.4533 6.90659 25.0666 9.38658C19.8666 11.9733 16.2666 17.3333 16.2666 23.5199V30.2666C16.2666 31.3599 15.7599 33.2266 15.1999 34.1866L12.5066 38.6399C11.4399 40.4266 11.1999 42.3999 11.8666 44.2132C12.5066 45.9999 14.0266 47.3866 15.9999 48.0532C21.1733 49.8133 26.6133 50.6666 32.0533 50.6666C37.4933 50.6666 42.9333 49.8133 48.1066 48.0799C49.9733 47.4666 51.4133 46.0532 52.1066 44.2132C52.7999 42.3732 52.6133 40.3466 51.5733 38.6399Z" fill="#0235B2"/>
<path d="M39.5466 53.3599C38.4266 56.4533 35.4666 58.6666 32 58.6666C29.8933 58.6666 27.8133 57.8133 26.3466 56.2933C25.4933 55.4933 24.8533 54.4266 24.48 53.3333C24.8266 53.3866 25.1733 53.4132 25.5466 53.4666C26.16 53.5466 26.8 53.6266 27.44 53.6799C28.96 53.8132 30.5066 53.8932 32.0533 53.8932C33.5733 53.8932 35.0933 53.8132 36.5866 53.6799C37.1466 53.6266 37.7066 53.5999 38.24 53.5199C38.6666 53.4666 39.0933 53.4133 39.5466 53.3599Z" fill="#0235B2"/>
</svg>
